<?xml version="1.0" standalone="no"?>
<!DOCTYPE svg PUBLIC "-//W3C//DTD SVG 20010904//EN"
 "http://www.w3.org/TR/2001/REC-SVG-20010904/DTD/svg10.dtd">
<svg version="1.0" xmlns="http://www.w3.org/2000/svg"
 width="235.000000pt" height="235.000000pt" viewBox="0 0 235.000000 235.000000"
 preserveAspectRatio="xMidYMid meet">
<metadata>
Created by potrace 1.11, written by Peter Selinger 2001-2013
</metadata>
<g transform="translate(0.000000,235.000000) scale(0.100000,-0.100000)"
fill="#000000" stroke="none">
<path d="M1085 1949 c-147 -49 -253 -144 -329 -295 -33 -67 -78 -204 -89 -272
-5 -28 -12 -56 -47 -167 -27 -88 -42 -287 -27 -365 l7 -35 -58 -19 c-79 -25
-222 -97 -280 -139 -111 -83 -146 -158 -217 -462 -19 -82 -37 -160 -41 -173
l-6 -22 1176 0 c647 0 1176 2 1176 5 0 3 -11 46 -24 97 -13 51 -27 109 -30
128 -13 78 -59 228 -88 288 -21 42 -50 80 -86 112 -58 52 -220 138 -314 166
-52 16 -57 20 -51 42 11 44 10 187 -3 263 -6 41 -26 125 -43 185 -16 60 -33
125 -36 144 -16 94 -86 256 -142 329 -37 48 -105 111 -147 136 -98 58 -222 80
-301 54z"/>
</g>
</svg>
